# xmcd
# 
# Track frame offsets:
#     150
#     15947
#     37962
#     59625
#     78237
#     97157
#     118600
#     137510
#     154905
#     173275
#     193102
# 
# Disc length: 2804
# 
# Revision: 43
# Processed by: cddbd v1.5.2PL0 Copyright (c) Steve Scherf et al.
# Submitted via: fre:ac v1.0.17
# 
DISCID=830af20b
DTITLE=Mariah Carey - Mariah Carey
DYEAR=1990
DGENRE=Pop
TTITLE0=Vision of Love
TTITLE1=There's Got to Be a Way
TTITLE2=I Don't Wanna Cry
TTITLE3=Someday
TTITLE4=Vanishing
TTITLE5=All in Your Mind
TTITLE6=Alone in Love
TTITLE7=You Need Me
TTITLE8=Sent from Up Above
TTITLE9=Prisoner
TTITLE10=Love Takes Time
EXTD=
EXTT0=
EXTT1=
EXTT2=
EXTT3=
EXTT4=
EXTT5=
EXTT6=
EXTT7=
EXTT8=
EXTT9=
EXTT10=
PLAYORDER=
